<svg height="512pt" viewBox="0 0 512 512" width="512pt" xmlns="http://www.w3.org/2000/svg"><path d="m512 256c0 141.386719-114.613281 256-256 256s-256-114.613281-256-256 114.613281-256 256-256 256 114.613281 256 256zm0 0" fill="#0092e2"/><path d="m447.796875 302.058594c-8.285156-11.808594-20.691406-20.082032-34.777344-23.199219l-99.09375-21.917969-4.25 30.578125s-12.121093 27.703125-53.675781 27.703125-53.675781-27.703125-53.675781-27.703125l-4.253907-30.578125-99.09375 21.917969c-14.082031 3.117187-26.492187 11.390625-34.777343 23.199219l-41.597657 59.273437c40.160157 88.84375 129.558594 150.667969 233.398438 150.667969s193.238281-61.824219 233.394531-150.667969zm0 0" fill="#fefefe"/><path d="m323.039062 0h-134.078124c-5.125 0-9.417969 3.871094-9.949219 8.96875l-7.898438 76.03125h169.773438l-7.898438-76.03125c-.53125-5.097656-4.824219-8.96875-9.949219-8.96875zm0 0" fill="#3d4751"/><path d="m228.960938 0h-40c-5.125 0-9.417969 3.871094-9.949219 8.96875l-7.898438 76.03125h40l7.898438-76.03125c.53125-5.097656 4.824219-8.96875 9.949219-8.96875zm0 0" fill="#333941"/><path d="m359.566406 78.722656c-1.671875-1.152344-3.65625-1.773437-5.6875-1.773437h-195.757812c-2.03125 0-4.015625.621093-5.6875 1.773437l-34.511719 23.863282c-1.382813.953124-1.046875 3.078124.558594 3.558593l134.640625 40.441407c1.878906.5625 3.878906.5625 5.753906 0l134.640625-40.441407c1.605469-.480469 1.941406-2.605469.5625-3.558593zm0 0" fill="#495560"/><g fill="#3d4751"><path d="m192.433594 78.722656c1.671875-1.152344 3.65625-1.773437 5.6875-1.773437h-40c-2.03125 0-4.015625.621093-5.6875 1.773437l-34.511719 23.863282c-1.382813.953124-1.046875 3.078124.558594 3.558593l24.289062 7.296875zm0 0"/><path d="m221 195h-78.269531c-6.585938 0-11.371094 6.25-9.65625 12.605469l14.871093 55.070312c.742188 2.753907-.960937 5.570313-3.746093 6.183594l-45.21875 10c-14.082031 3.121094-26.492188 11.390625-34.78125 23.199219l-41.597657 59.269531c36.894532 81.632813 115.359376 140.441406 208.398438 149.460937v-305.789062c0-5.523438-4.476562-10-10-10zm0 0"/><path d="m447.800781 302.058594c-8.289062-11.808594-20.699219-20.078125-34.78125-23.199219l-45.21875-10c-2.785156-.613281-4.488281-3.429687-3.746093-6.183594l14.871093-55.070312c1.714844-6.355469-3.070312-12.605469-9.65625-12.605469h-78.269531c-5.523438 0-10 4.476562-10 10v305.789062c93.039062-9.019531 171.503906-67.828124 208.398438-149.460937zm0 0"/></g><path d="m105.769531 347.515625-26.675781 93.519531c10.195312 9.75 21.199219 18.664063 32.898438 26.636719zm0 0" fill="#333941"/><path d="m432.957031 440.988281-26.664062-93.472656-6.222657 120.113281c11.695313-7.976562 22.695313-16.890625 32.886719-26.640625zm0 0" fill="#333941"/><path d="m190.75 159.308594c3.808594-4.582032 9.546875-7.5 15.96875-7.5 6.425781 0 12.164062 2.917968 15.96875 7.5 1.113281 1.335937 1.113281 3.296875 0 4.632812-3.804688 4.582032-9.542969 7.5-15.96875 7.5-6.421875 0-12.160156-2.917968-15.96875-7.5-1.109375-1.335937-1.109375-3.296875 0-4.632812zm0 0" fill="#fefefe"/><path d="m289.3125 159.308594c3.804688-4.582032 9.542969-7.5 15.96875-7.5 6.421875 0 12.160156 2.917968 15.96875 7.5 1.109375 1.335937 1.109375 3.296875 0 4.632812-3.808594 4.582032-9.546875 7.5-15.96875 7.5-6.425781 0-12.164062-2.917968-15.96875-7.5-1.113281-1.335937-1.113281-3.296875 0-4.632812zm0 0" fill="#fefefe"/></svg>