<svg height="512pt" viewBox="0 0 512 512" width="512pt" xmlns="http://www.w3.org/2000/svg"><path d="m512 256c0 141.386719-114.613281 256-256 256s-256-114.613281-256-256 114.613281-256 256-256 256 114.613281 256 256zm0 0" fill="#e4edfb"/><path d="m453.761719 418.398438c-47.042969 57.121093-118.242188 93.601562-197.761719 93.601562s-150.71875-36.480469-197.761719-93.601562l133.761719-31.039063v-12.800781l-22.558594-22.558594h-73.441406v-128c0-42.878906 16.640625-83.039062 47.039062-113.121094 29.921876-30.238281 70.082032-46.878906 112.960938-46.878906 88.160156 0 160 71.839844 160 160v128h-73.441406l-22.558594 22.558594v12.800781zm0 0" fill="#ffb6e0"/><g fill="#fff"><path d="m176 192h32v32h-32zm0 0"/><path d="m240 192h96v32h-96zm0 0"/></g></svg>